{
  "source": "C:\\Users\\Peter\\Desktop\\stuff\\MIUN\\quantitative_research\\video_compression\\videos\\BVI-HD\\BVI-HD_CDVL_videos\\ORIG\\Hamster_1920x1080_60fps.mp4",
  "output": "C:\\Users\\Peter\\Desktop\\stuff\\MIUN\\quantitative_research\\video_compression\\compressed_videos\\BVI-HD\\vp9\\2.5\\Hamster_1920x1080_60fps_vp9.webm",
  "codec": "vp9",
  "ok": "Input #0, mov,mp4,m4a,3gp,3g2,mj2, from 'C:\\Users\\Peter\\Desktop\\stuff\\MIUN\\quantitative_research\\video_compression\\videos\\BVI-HD\\BVI-HD_CDVL_videos\\ORIG\\Hamster_1920x1080_60fps.mp4':\n  Metadata:\n    major_brand     : isom\n    minor_version   : 512\n    compatible_brands: isomiso2avc1mp41\n    encoder         : Lavf54.28.101\n  Duration: 00:00:05.00, start: 0.000000, bitrate: 208485 kb/s\n  Stream #0:0[0x1](und): Video: h264 (High 4:4:4 Predictive) (avc1 / 0x31637661), yuv420p(progressive), 1920x1080, 208481 kb/s, 60 fps, 60 tbr, 60 tbn (default)\n    Metadata:\n      handler_name    : VideoHandler\n      vendor_id       : [0][0][0][0]\n[out#0/webm @ 00000210ab6f8f80] Codec AVOption b:a (set bitrate (in bits/s)) has not been used for any stream. The most likely reason is either wrong type (e.g. a video option with no video streams) or that it is a private option of some decoder which was not actually used for any stream.\nStream mapping:\n  Stream #0:0 -> #0:0 (h264 (native) -> vp9 (libvpx-vp9))\nPress [q] to stop, [?] for help\n[libvpx-vp9 @ 00000210abe7a1c0] v1.15.2-100-g40561f514\nOutput #0, webm, to 'C:\\Users\\Peter\\Desktop\\stuff\\MIUN\\quantitative_research\\video_compression\\compressed_videos\\BVI-HD\\vp9\\2.5\\Hamster_1920x1080_60fps_vp9.webm':\n  Metadata:\n    major_brand     : isom\n    minor_version   : 512\n    compatible_brands: isomiso2avc1mp41\n    encoder         : Lavf62.3.100\n  Stream #0:0(und): Video: vp9, yuv420p(tv, progressive), 1920x1080, q=2-31, 2500 kb/s, 60 fps, 1k tbn (default)\n    Metadata:\n      encoder         : Lavc62.11.100 libvpx-vp9\n      handler_name    : VideoHandler\n      vendor_id       : [0][0][0][0]\n    Side data:\n      cpb: bitrate max/min/avg: 0/0/0 buffer size: 2500000 vbv_delay: N/A\nframe=    0 fps=0.0 q=0.0 size=       0KiB time=N/A bitrate=N/A speed=N/A elapsed=0:00:00.62    \nframe=    3 fps=2.2 q=60.0 size=       1KiB time=00:00:00.05 bitrate= 101.3kbits/s speed=0.0367x elapsed=0:00:01.36    \nframe=    8 fps=4.2 q=45.0 size=       1KiB time=00:00:00.11 bitrate=  43.4kbits/s speed=0.0607x elapsed=0:00:01.92    \nframe=   13 fps=5.0 q=41.0 size=       1KiB time=00:00:00.20 bitrate=  25.3kbits/s speed=0.0764x elapsed=0:00:02.61    \nframe=   16 fps=4.9 q=47.0 size=       1KiB time=00:00:00.26 bitrate=  19.0kbits/s speed=0.0815x elapsed=0:00:03.27    \nframe=   20 fps=5.2 q=46.0 size=       1KiB time=00:00:00.33 bitrate=  15.2kbits/s speed=0.0859x elapsed=0:00:03.88    \nframe=   24 fps=5.4 q=46.0 size=       1KiB time=00:00:00.40 bitrate=  12.7kbits/s speed=0.0901x elapsed=0:00:04.44    \nframe=   28 fps=5.4 q=47.0 size=       1KiB time=00:00:00.45 bitrate=  11.3kbits/s speed=0.0876x elapsed=0:00:05.13    \nframe=   32 fps=5.4 q=48.0 size=       1KiB time=00:00:00.51 bitrate=   9.8kbits/s speed=0.0877x elapsed=0:00:05.89    \nframe=   35 fps=5.3 q=48.0 size=       1KiB time=00:00:00.58 bitrate=   8.7kbits/s speed=0.0887x elapsed=0:00:06.57    \nframe=   39 fps=5.4 q=47.0 size=       1KiB time=00:00:00.63 bitrate=   8.0kbits/s speed=0.0877x elapsed=0:00:07.22    \nframe=   43 fps=5.4 q=46.0 size=       1KiB time=00:00:00.70 bitrate=   7.2kbits/s speed=0.0886x elapsed=0:00:07.89    \nframe=   46 fps=5.4 q=47.0 size=       1KiB time=00:00:00.76 bitrate=   6.6kbits/s speed=0.0894x elapsed=0:00:08.58    \nframe=   48 fps=5.3 q=47.0 size=       1KiB time=00:00:00.80 bitrate=   6.3kbits/s speed=0.0875x elapsed=0:00:09.13    \nframe=   52 fps=5.3 q=45.0 size=       1KiB time=00:00:00.85 bitrate=   6.0kbits/s speed=0.0871x elapsed=0:00:09.75    \nframe=   56 fps=5.4 q=44.0 size=       1KiB time=00:00:00.90 bitrate=   5.6kbits/s speed=0.0868x elapsed=0:00:10.37    \nframe=   59 fps=5.3 q=44.0 size=       1KiB time=00:00:00.96 bitrate=   5.2kbits/s speed=0.087x elapsed=0:00:11.10    \nframe=   62 fps=5.3 q=43.0 size=       1KiB time=00:00:01.01 bitrate=   5.0kbits/s speed=0.0867x elapsed=0:00:11.72    \nframe=   65 fps=5.3 q=42.0 size=       1KiB time=00:00:01.08 bitrate=   4.7kbits/s speed=0.0878x elapsed=0:00:12.34    \nframe=   68 fps=5.3 q=45.0 size=       1KiB time=00:00:01.13 bitrate=   4.5kbits/s speed=0.0876x elapsed=0:00:12.93    \nframe=   71 fps=5.2 q=46.0 size=       1KiB time=00:00:01.18 bitrate=   4.3kbits/s speed=0.0869x elapsed=0:00:13.62    \nframe=   74 fps=5.2 q=47.0 size=       1KiB time=00:00:01.21 bitrate=   4.2kbits/s speed=0.0855x elapsed=0:00:14.23    \nframe=   78 fps=5.3 q=48.0 size=       1KiB time=00:00:01.30 bitrate=   3.9kbits/s speed=0.0876x elapsed=0:00:14.83    \nframe=   82 fps=5.3 q=50.0 size=       1KiB time=00:00:01.36 bitrate=   3.7kbits/s speed=0.0889x elapsed=0:00:15.37    \nframe=   85 fps=5.3 q=34.0 size=       1KiB time=00:00:01.41 bitrate=   3.6kbits/s speed=0.0891x elapsed=0:00:15.90    \nframe=   88 fps=5.3 q=50.0 size=       1KiB time=00:00:01.46 bitrate=   3.5kbits/s speed=0.089x elapsed=0:00:16.47    \nframe=   91 fps=5.3 q=50.0 size=       1KiB time=00:00:01.51 bitrate=   3.3kbits/s speed=0.0889x elapsed=0:00:17.06    \nframe=   94 fps=5.3 q=50.0 size=       1KiB time=00:00:01.55 bitrate=   3.3kbits/s speed=0.087x elapsed=0:00:17.81    \nframe=   97 fps=5.2 q=36.0 size=       1KiB time=00:00:01.60 bitrate=   3.2kbits/s speed=0.086x elapsed=0:00:18.60    \nframe=   99 fps=5.1 q=50.0 size=       1KiB time=00:00:01.65 bitrate=   3.1kbits/s speed=0.085x elapsed=0:00:19.40    \nframe=  101 fps=5.0 q=50.0 size=       1KiB time=00:00:01.68 bitrate=   3.0kbits/s speed=0.084x elapsed=0:00:20.04    \nframe=  103 fps=5.0 q=50.0 size=       1KiB time=00:00:01.71 bitrate=   2.9kbits/s speed=0.0831x elapsed=0:00:20.66    \nframe=  106 fps=5.0 q=50.0 size=       1KiB time=00:00:01.75 bitrate=   2.9kbits/s speed=0.0822x elapsed=0:00:21.27    \nframe=  109 fps=4.9 q=36.0 size=       1KiB time=00:00:01.80 bitrate=   2.8kbits/s speed=0.0815x elapsed=0:00:22.07    \nframe=  111 fps=4.9 q=52.0 size=       1KiB time=00:00:01.85 bitrate=   2.7kbits/s speed=0.0811x elapsed=0:00:22.82    \nframe=  114 fps=4.8 q=52.0 size=       1KiB time=00:00:01.90 bitrate=   2.7kbits/s speed=0.0806x elapsed=0:00:23.56    \nframe=  117 fps=4.8 q=52.0 size=       1KiB time=00:00:01.95 bitrate=   2.6kbits/s speed=0.0804x elapsed=0:00:24.25    \nframe=  120 fps=4.8 q=51.0 size=       1KiB time=00:00:02.00 bitrate=   2.5kbits/s speed=0.0805x elapsed=0:00:24.84    \nframe=  123 fps=4.8 q=49.0 size=       1KiB time=00:00:02.05 bitrate=   2.5kbits/s speed=0.0807x elapsed=0:00:25.38    \nframe=  126 fps=4.8 q=49.0 size=       1KiB time=00:00:02.10 bitrate=   2.4kbits/s speed=0.0808x elapsed=0:00:26.00    \nframe=  130 fps=4.9 q=51.0 size=     512KiB time=00:00:02.15 bitrate=1950.8kbits/s speed=0.081x elapsed=0:00:26.53    \nframe=  134 fps=4.9 q=50.0 size=     512KiB time=00:00:02.21 bitrate=1892.2kbits/s speed=0.0815x elapsed=0:00:27.18    \nframe=  137 fps=4.9 q=47.0 size=     512KiB time=00:00:02.26 bitrate=1850.4kbits/s speed=0.0817x elapsed=0:00:27.76    \nframe=  139 fps=4.9 q=47.0 size=     512KiB time=00:00:02.30 bitrate=1823.6kbits/s speed=0.0806x elapsed=0:00:28.52    \nframe=  143 fps=4.9 q=47.0 size=     512KiB time=00:00:02.38 bitrate=1759.8kbits/s speed=0.0818x elapsed=0:00:29.12    \nframe=  146 fps=4.9 q=33.0 size=     512KiB time=00:00:02.43 bitrate=1723.7kbits/s speed=0.0819x elapsed=0:00:29.71    \nframe=  150 fps=5.0 q=44.0 size=     512KiB time=00:00:02.50 bitrate=1677.7kbits/s speed=0.0826x elapsed=0:00:30.26    \nframe=  154 fps=5.0 q=45.0 size=     512KiB time=00:00:02.56 bitrate=1634.1kbits/s speed=0.0833x elapsed=0:00:30.79    \nframe=  157 fps=5.0 q=45.0 size=     512KiB time=00:00:02.61 bitrate=1602.9kbits/s speed=0.0835x elapsed=0:00:31.33    \nframe=  161 fps=5.0 q=45.0 size=     512KiB time=00:00:02.68 bitrate=1563.1kbits/s speed=0.0839x elapsed=0:00:31.96    \nframe=  164 fps=5.0 q=46.0 size=     512KiB time=00:00:02.73 bitrate=1534.5kbits/s speed=0.0839x elapsed=0:00:32.56    \nframe=  168 fps=5.1 q=46.0 size=     512KiB time=00:00:02.78 bitrate=1506.9kbits/s speed=0.084x elapsed=0:00:33.13    \nframe=  171 fps=5.1 q=46.0 size=     512KiB time=00:00:02.85 bitrate=1471.7kbits/s speed=0.0843x elapsed=0:00:33.79    \nframe=  175 fps=5.1 q=45.0 size=     512KiB time=00:00:02.90 bitrate=1446.3kbits/s speed=0.0845x elapsed=0:00:34.33    \nframe=  179 fps=5.1 q=46.0 size=     512KiB time=00:00:02.98 bitrate=1405.9kbits/s speed=0.0853x elapsed=0:00:34.97    \nframe=  181 fps=5.1 q=47.0 size=     512KiB time=00:00:03.01 bitrate=1390.4kbits/s speed=0.0849x elapsed=0:00:35.53    \nframe=  184 fps=5.1 q=46.0 size=     512KiB time=00:00:03.06 bitrate=1367.7kbits/s speed=0.085x elapsed=0:00:36.05    \nframe=  187 fps=5.1 q=46.0 size=     512KiB time=00:00:03.11 bitrate=1345.8kbits/s speed=0.0852x elapsed=0:00:36.58    \nframe=  190 fps=5.1 q=47.0 size=     512KiB time=00:00:03.16 bitrate=1324.5kbits/s speed=0.0853x elapsed=0:00:37.12    \nframe=  194 fps=5.1 q=33.0 size=     512KiB time=00:00:03.23 bitrate=1297.2kbits/s speed=0.0857x elapsed=0:00:37.70    \nframe=  198 fps=5.2 q=46.0 size=     512KiB time=00:00:03.28 bitrate=1277.5kbits/s speed=0.0858x elapsed=0:00:38.24    \nframe=  202 fps=5.2 q=47.0 size=     512KiB time=00:00:03.36 bitrate=1245.8kbits/s speed=0.0865x elapsed=0:00:38.90    \nframe=  205 fps=5.2 q=48.0 size=     512KiB time=00:00:03.41 bitrate=1227.6kbits/s speed=0.0864x elapsed=0:00:39.56    \nframe=  208 fps=5.2 q=52.0 size=     512KiB time=00:00:03.46 bitrate=1209.9kbits/s speed=0.0863x elapsed=0:00:40.16    \nframe=  211 fps=5.2 q=54.0 size=     512KiB time=00:00:03.51 bitrate=1192.7kbits/s speed=0.0863x elapsed=0:00:40.73    \nframe=  214 fps=5.2 q=51.0 size=     512KiB time=00:00:03.56 bitrate=1176.0kbits/s speed=0.0861x elapsed=0:00:41.41    \nframe=  218 fps=5.2 q=53.0 size=     512KiB time=00:00:03.63 bitrate=1154.4kbits/s speed=0.0864x elapsed=0:00:42.06    \nframe=  221 fps=5.2 q=55.0 size=     512KiB time=00:00:03.68 bitrate=1138.7kbits/s speed=0.0863x elapsed=0:00:42.67    \nframe=  224 fps=5.2 q=39.0 size=     512KiB time=00:00:03.73 bitrate=1123.5kbits/s speed=0.0863x elapsed=0:00:43.24    \nframe=  227 fps=5.2 q=55.0 size=     512KiB time=00:00:03.78 bitrate=1108.6kbits/s speed=0.0864x elapsed=0:00:43.81    \nframe=  230 fps=5.2 q=56.0 size=     512KiB time=00:00:03.83 bitrate=1094.2kbits/s speed=0.0864x elapsed=0:00:44.39    \nframe=  233 fps=5.2 q=57.0 size=     512KiB time=00:00:03.88 bitrate=1080.1kbits/s speed=0.0863x elapsed=0:00:45.01    \nframe=  236 fps=5.2 q=41.0 size=     512KiB time=00:00:03.93 bitrate=1066.3kbits/s speed=0.0862x elapsed=0:00:45.62    \nframe=  239 fps=5.2 q=58.0 size=     512KiB time=00:00:03.98 bitrate=1053.0kbits/s speed=0.0863x elapsed=0:00:46.14    \nframe=  242 fps=5.2 q=43.0 size=     512KiB time=00:00:04.03 bitrate=1039.9kbits/s speed=0.0864x elapsed=0:00:46.66    \nframe=  246 fps=5.2 q=57.0 size=     512KiB time=00:00:04.10 bitrate=1023.0kbits/s speed=0.0868x elapsed=0:00:47.21    \nframe=  250 fps=5.2 q=54.0 size=     512KiB time=00:00:04.16 bitrate=1006.6kbits/s speed=0.0873x elapsed=0:00:47.74    \nframe=  255 fps=5.3 q=52.0 size=     512KiB time=00:00:04.23 bitrate= 990.8kbits/s speed=0.0876x elapsed=0:00:48.33    \nframe=  259 fps=5.3 q=50.0 size=    1024KiB time=00:00:04.30 bitrate=1950.8kbits/s speed=0.0876x elapsed=0:00:49.10    \nframe=  262 fps=5.3 q=49.0 size=    1024KiB time=00:00:04.36 bitrate=1921.1kbits/s speed=0.0877x elapsed=0:00:49.80    \nframe=  266 fps=5.3 q=49.0 size=    1024KiB time=00:00:04.41 bitrate=1899.3kbits/s speed=0.0876x elapsed=0:00:50.41    \nframe=  270 fps=5.3 q=50.0 size=    1024KiB time=00:00:04.50 bitrate=1864.1kbits/s speed=0.0881x elapsed=0:00:51.05    \nframe=  274 fps=5.3 q=48.0 size=    1024KiB time=00:00:04.56 bitrate=1836.9kbits/s speed=0.0885x elapsed=0:00:51.58    \nframe=  276 fps=5.3 q=47.0 size=    1024KiB time=00:00:04.60 bitrate=1823.6kbits/s speed=0.0882x elapsed=0:00:52.14    \nframe=  276 fps=5.2 q=47.0 size=    1024KiB time=00:00:04.60 bitrate=1823.6kbits/s speed=0.087x elapsed=0:00:52.86    \nframe=  276 fps=5.2 q=47.0 size=    1024KiB time=00:00:04.60 bitrate=1823.6kbits/s speed=0.0861x elapsed=0:00:53.41    \nframe=  276 fps=5.1 q=47.0 size=    1024KiB time=00:00:04.60 bitrate=1823.6kbits/s speed=0.0853x elapsed=0:00:53.93    \nframe=  276 fps=5.1 q=47.0 size=    1024KiB time=00:00:04.60 bitrate=1823.6kbits/s speed=0.0844x elapsed=0:00:54.53    \nframe=  276 fps=5.0 q=47.0 size=    1024KiB time=00:00:04.60 bitrate=1823.6kbits/s speed=0.0835x elapsed=0:00:55.06    \n[out#0/webm @ 00000210ab6f8f80] video:1384KiB audio:0KiB subtitle:0KiB other streams:0KiB global headers:0KiB muxing overhead: 0.200052%\nframe=  300 fps=5.4 q=43.0 Lsize=    1387KiB time=00:00:05.00 bitrate=2271.9kbits/s speed=0.0905x elapsed=0:00:55.23    \n",
  "seconds": 55.71638321876526,
  "probe_out": {}
}